<svg id="Capa_1" enable-background="new 0 0 512 512" height="512" viewBox="0 0 512 512" width="512" xmlns="http://www.w3.org/2000/svg"><g><path d="m285.356 506.977c-9.785-2.316-19.571-4.977-29.356-7.984l-20.56-33.719v-409.201l20.56-37.077c1.521-.63 3.041-1.249 4.562-1.857 120.237-48.073 250.892 41.55 250.892 171.041v139.988c-.001 118.601-110.684 206.121-226.098 178.809z" fill="#f6f1f1"/><path d="m256 18.996-20.56 37.078v409.201l20.56 33.718c6.345 1.95 12.691 3.738 19.036 5.398 1.323-1.452 2.517-3.225 3.538-5.398v-479.997c0-2.702-.855-5.156-2.276-7.339-5.257 1.578-10.507 3.392-15.736 5.482-1.521.607-3.041 1.227-4.562 1.857z" fill="#efe7e4"/><g><path d="m297.864 192.1c-4.259 0-7.71-3.451-7.71-7.71v-51.3c0-16.734 13.615-30.349 30.349-30.349h57.609c4.258 0 7.71 3.451 7.71 7.71s-3.451 7.71-7.71 7.71h-57.609c-8.232 0-14.929 6.697-14.929 14.929v51.3c0 4.258-3.452 7.71-7.71 7.71z" fill="#a298a5"/></g><g><path d="m378.112 408.607h-57.609c-16.734 0-30.349-13.614-30.349-30.348v-51.301c0-4.259 3.451-7.71 7.71-7.71 4.258 0 7.71 3.451 7.71 7.71v51.301c0 8.231 6.697 14.928 14.929 14.928h57.609c4.258 0 7.71 3.451 7.71 7.71-.001 4.259-3.452 7.71-7.71 7.71z" fill="#a298a5"/></g><g><path d="m415.767 263.385h-86.319c-4.258 0-7.71-3.451-7.71-7.71 0-4.258 3.451-7.71 7.71-7.71h86.319c4.259 0 7.71 3.451 7.71 7.71s-3.451 7.71-7.71 7.71z" fill="#a298a5"/></g><path d="m311 337.017h-75.56v-163.128h75.56c15.866 0 28.728 12.862 28.728 28.728v105.672c0 15.866-12.862 28.728-28.728 28.728z" fill="#544f57"/><path d="m235.44 173.889h43.134v163.128h-43.134z" fill="#454045"/><g><g><path d="m440.762 355.239c-1.973 0-3.946-.753-5.451-2.258l-17.727-17.726h-15.634c-4.258 0-7.71-3.451-7.71-7.71s3.451-7.71 7.71-7.71h18.828c2.045 0 4.006.812 5.451 2.258l19.984 19.983c3.012 3.011 3.012 7.893.001 10.903-1.506 1.507-3.479 2.26-5.452 2.26z" fill="#a298a5"/></g><g><path d="m427.345 191.071h-18.828c-4.259 0-7.71-3.451-7.71-7.71 0-4.258 3.451-7.71 7.71-7.71h15.635l17.727-17.726c3.011-3.011 7.893-3.01 10.903.001 3.011 3.011 3.011 7.893-.001 10.903l-19.984 19.983c-1.446 1.447-3.407 2.259-5.452 2.259z" fill="#a298a5"/></g></g><path d="m256 18.996c0-11.852-16.323-18.996-25.727-18.996-15.061 0-28.568 6.629-37.778 17.123-2.839 3.235-7.299 4.476-11.472 3.421-5.37-1.358-10.992-2.082-16.785-2.082-34.628 0-63.247 25.728-67.784 59.112-.705 5.186-4.758 9.245-9.943 9.953-16.874 2.301-50.647 12.545-49.337 57.738.271 9.33 2.356 18.151 6.164 25.975 2.597 5.336.643 11.705-4.383 14.858-23.067 14.472-38.408 40.115-38.408 69.355 0 29.301 15.405 54.989 38.552 69.445 5.024 3.138 6.787 9.499 4.15 14.802-3.886 7.814-5.749 16.627-6.074 25.941-1.422 40.798 32.216 53.24 49.173 56.912 5.446 1.179 9.622 5.549 10.654 11.025 3.392 18.008 16.533 55.487 67.237 58.866 5.841.389 11.535-.748 16.956-2.125 4.191-1.065 8.565.373 11.429 3.611 9.208 10.41 22.658 16.977 37.649 16.977 9.404 0 20.125 0 25.727-11.913z" fill="#eaa598"/><g><path d="m230.273 0c-4.152 0-8.18.521-12.039 1.47 8.402 2.661 17.206 8.821 17.206 17.525v479.998c-3.325 7.071-8.453 9.945-14.038 11.113 2.881.514 5.842.8 8.871.8 9.404 0 20.125 0 25.727-11.913v-479.997c0-11.852-16.323-18.996-25.727-18.996z" fill="#e48e81"/></g><g><g><g><path d="m175.346 107.682c-24.02 0-34.402-22.49-34.526-22.767-1.737-3.888.007-8.448 3.894-10.184 3.874-1.732 8.414-.006 10.164 3.85.09.191 2.632 5.486 7.882 9.395 6.7 4.989 14.671 5.575 24.366 1.79 3.967-1.545 8.439.414 9.986 4.38 1.547 3.967-.414 8.438-4.38 9.986-6.444 2.514-12.23 3.55-17.386 3.55z" fill="#ecbeb4"/></g><g><path d="m147.861 436.877c-1.056 0-2.129-.217-3.157-.677-3.887-1.737-5.62-6.32-3.883-10.209.151-.336 15.442-33.442 51.912-19.216 3.966 1.548 5.927 6.018 4.38 9.986-1.547 3.965-6.018 5.929-9.986 4.38-9.697-3.786-17.669-3.198-24.366 1.79-5.319 3.961-7.858 9.346-7.884 9.4-1.278 2.859-4.078 4.546-7.016 4.546z" fill="#ecbeb4"/></g></g><g><g><path d="m93.5 288.55c-1.409 0-2.836-.387-4.115-1.196-3.598-2.276-4.67-7.039-2.393-10.637 13.847-21.887.752-41.424.188-42.246-2.402-3.495-1.544-8.291 1.937-10.714 3.48-2.423 8.251-1.599 10.693 1.869.812 1.152 19.666 28.585.213 59.334-1.467 2.32-3.968 3.59-6.523 3.59z" fill="#ecbeb4"/></g><g><path d="m146.728 263.164c-1.531 0-3.076-.455-4.424-1.401-20.515-14.41-35.456-1.181-36.083-.61-3.147 2.867-8.024 2.64-10.891-.507-2.868-3.147-2.641-8.024.507-10.891 8.461-7.708 30.916-17.758 55.329-.61 3.484 2.447 4.326 7.256 1.878 10.741-1.5 2.135-3.889 3.277-6.316 3.278z" fill="#ecbeb4"/></g></g><g><g><path d="m197.655 176.726c-1.914 0-3.833-.712-5.332-2.141-3.082-2.939-3.175-7.841-.236-10.923.891-.935 8.989-9.08 20.291-9.08.083 0 .167.001.25.002 4.811.05 11.986 1.689 18.851 9.199 2.872 3.143 2.653 8.019-.49 10.892-3.142 2.872-8.019 2.654-10.892-.49-2.527-2.765-5.002-4.132-7.566-4.181-.049-.001-.098-.002-.147-.002-4.009 0-7.978 3.128-9.183 4.348-1.509 1.582-3.526 2.376-5.546 2.376z" fill="#ecbeb4"/></g><g><path d="m212.378 356.325c-11.303 0-19.399-8.145-20.291-9.079-2.939-3.081-2.824-7.962.257-10.9 3.068-2.928 7.92-2.825 10.863.218 1.226 1.24 5.245 4.453 9.323 4.341 2.564-.049 5.04-1.417 7.566-4.182 2.873-3.142 7.751-3.361 10.892-.489 3.143 2.873 3.362 7.75.49 10.892-6.865 7.51-14.04 9.147-18.851 9.199-.083 0-.167 0-.249 0z" fill="#ecbeb4"/></g></g><g><g><path d="m97.262 152.452c-1.629 0-3.273-.514-4.669-1.579l-7.037-5.366c-3.386-2.582-4.038-7.42-1.456-10.806 2.58-3.385 7.419-4.039 10.806-1.456l7.037 5.366c3.386 2.582 4.038 7.42 1.456 10.806-1.517 1.99-3.814 3.035-6.137 3.035z" fill="#ecbeb4"/></g><g><path d="m93.755 379.24c-2.323 0-4.62-1.045-6.137-3.035-2.582-3.386-1.93-8.224 1.456-10.806l7.037-5.366c3.387-2.584 8.225-1.929 10.806 1.456 2.582 3.386 1.93 8.224-1.456 10.806l-7.037 5.366c-1.396 1.065-3.039 1.579-4.669 1.579z" fill="#ecbeb4"/></g></g></g><g><g><path d="m322.686 61.27c-2.256 0-4.49-.985-6.014-2.879-2.667-3.319-2.14-8.172 1.179-10.84l15.306-12.305c3.321-2.668 8.171-2.139 10.84 1.179 2.667 3.319 2.14 8.172-1.179 10.84l-15.306 12.305c-1.425 1.144-3.132 1.7-4.826 1.7z" fill="#a298a5"/></g><g><path d="m337.982 477.361c-1.695 0-3.401-.556-4.826-1.701l-15.306-12.304c-3.319-2.668-3.846-7.521-1.179-10.84 2.667-3.318 7.52-3.846 10.84-1.179l15.306 12.304c3.319 2.668 3.846 7.521 1.179 10.84-1.522 1.895-3.758 2.88-6.014 2.88z" fill="#a298a5"/></g></g><g fill="#80b4fb"><circle cx="386.659" cy="110.451" r="18.828"/><circle cx="386.659" cy="400.898" r="18.828"/><circle cx="424.316" cy="255.675" r="18.828"/></g></g></svg>