<svg id="Capa_1" enable-background="new 0 0 512.988 512.988" height="512" viewBox="0 0 512.988 512.988" width="512" xmlns="http://www.w3.org/2000/svg"><g><path d="m489.698 100.897c-14.177-25.818-34.678-48.273-59.287-64.938-24.417-16.533-52.585-27.157-81.459-30.724-29.732-3.67-59.173-.045-87.58 10.738-5.965-10.636-20.753-15.973-29.904-15.973-17.13 0-33.1 7.693-43.766 20.836-6.636-1.91-13.498-2.876-20.472-2.876-38.426 0-70.108 29.423-73.708 66.926-15.131 1.654-29.394 8.692-39.916 19.872-2.839 3.017-2.694 7.764.321 10.603 3.016 2.837 7.762 2.695 10.603-.321 9.406-9.995 22.122-15.508 35.814-15.53.112.004.225.006.338.006 4.143 0 7.5-3.363 7.5-7.506 0-32.56 26.489-59.049 59.048-59.049 7.104 0 14.06 1.255 20.674 3.729 3.284 1.23 6.983.019 8.903-2.918 7.692-11.754 20.649-18.772 34.661-18.772 6.593 0 17.526 5.317 17.526 10.979v465.101c-3.127 5.329-7.981 5.921-17.526 5.921-14.012 0-26.969-7.018-34.66-18.771-1.919-2.936-5.616-4.149-8.903-2.918-6.614 2.474-13.57 3.729-20.674 3.729-32.559 0-59.048-26.489-59.048-59.055 0-4.143-3.357-7.5-7.5-7.5-.109 0-.219.002-.338.006-27.146-.046-49.22-22.145-49.22-49.302 0-10.899 3.493-21.234 10.103-29.889 1.392-1.823 1.873-4.183 1.307-6.406-.567-2.223-2.121-4.063-4.217-4.997-26.014-11.585-42.824-37.452-42.824-65.898s16.81-54.313 42.823-65.897c2.096-.934 3.649-2.774 4.217-4.998.566-2.223.085-4.583-1.308-6.406-6.608-8.652-10.102-18.987-10.102-29.887 0-3.59.402-7.216 1.196-10.776.901-4.043-1.646-8.051-5.688-8.952-4.049-.9-8.052 1.646-8.952 5.688-1.032 4.631-1.556 9.354-1.556 14.04 0 11.214 2.836 21.972 8.265 31.556-26.922 15.402-43.895 44.214-43.895 75.632s16.973 60.23 43.896 75.633c-5.43 9.585-8.265 20.342-8.265 31.557 0 33.123 25.177 60.478 57.398 63.934 3.599 37.498 35.281 66.917 73.707 66.917 6.974 0 13.836-.966 20.472-2.876 10.666 13.142 26.636 20.835 43.766 20.835 8.373 0 20.441-.009 28.39-10.259 7.815 2.294 15.682 4.393 23.466 6.236 14.2 3.359 28.597 5.012 42.922 5.012 38.393 0 76.226-11.875 108.036-34.554 3.373-2.404 4.158-7.088 1.754-10.46-2.405-3.372-7.089-4.158-10.461-1.754-40.158 28.631-90.749 38.532-138.796 27.158-7.556-1.788-15.196-3.827-22.785-6.057v-144.478h25.725v32.62c0 16.278 13.244 29.521 29.522 29.521h49.656c3.221 10.588 13.074 18.316 24.701 18.316 14.234 0 25.815-11.581 25.815-25.816 0-14.234-11.581-25.815-25.815-25.815-11.626 0-21.479 7.728-24.701 18.315h-49.656c-8.008 0-14.522-6.515-14.522-14.521v-32.62h5.278c19.545 0 35.446-15.901 35.446-35.446v-43.682h60.084c3.221 10.588 13.074 18.315 24.701 18.315 14.234 0 25.815-11.581 25.815-25.815 0-14.235-11.581-25.816-25.815-25.816-11.627 0-21.48 7.728-24.701 18.316h-60.084v-37.329c0-4.143-3.357-7.5-7.5-7.5s-7.5 3.357-7.5 7.5v96.011c0 11.274-9.172 20.446-20.446 20.446h-46.003v-143.688h46.003c4.771 0 9.414 1.68 13.075 4.73 3.184 2.651 7.912 2.22 10.563-.962 2.651-3.183 2.221-7.912-.962-10.563-6.352-5.291-14.404-8.205-22.677-8.205h-5.278v-32.188c0-8.008 6.515-14.522 14.522-14.522h49.656c3.221 10.588 13.074 18.315 24.701 18.315 14.234 0 25.815-11.581 25.815-25.815s-11.58-25.816-25.814-25.816c-11.626 0-21.479 7.728-24.701 18.315h-49.656c-16.278 0-29.522 13.244-29.522 29.522v32.188h-25.725v-138.126c26.938-10.718 54.898-14.392 83.119-10.905 26.531 3.276 52.426 13.047 74.887 28.257 22.649 15.337 41.513 35.993 54.55 59.736 13.897 25.31 20.944 53.047 20.944 82.44v136.178c0 45.691-17.727 88.608-49.915 120.843-2.927 2.932-2.923 7.681.008 10.607 1.465 1.462 3.382 2.192 5.3 2.192 1.921 0 3.843-.733 5.308-2.2 35.016-35.067 54.3-81.748 54.3-131.442v-136.177c-.001-31.948-7.671-62.114-22.797-89.661zm-96.1 285.773c5.964 0 10.815 4.852 10.815 10.815s-4.852 10.816-10.815 10.816-10.815-4.853-10.815-10.816 4.851-10.815 10.815-10.815zm36.631-141.271c5.964 0 10.815 4.853 10.815 10.816s-4.852 10.815-10.815 10.815-10.815-4.852-10.815-10.815 4.851-10.816 10.815-10.816zm-36.631-141.269c5.964 0 10.815 4.852 10.815 10.815s-4.852 10.815-10.815 10.815-10.815-4.852-10.815-10.815 4.851-10.815 10.815-10.815z"/><path d="m422.09 320.826c-1.406-1.406-3.313-2.196-5.303-2.196h-18.315c-4.143 0-7.5 3.357-7.5 7.5s3.357 7.5 7.5 7.5h15.209l17.244 17.243c1.464 1.464 3.384 2.196 5.303 2.196s3.839-.732 5.304-2.197c2.929-2.929 2.929-7.678-.001-10.606z"/><path d="m437.313 161.127-17.244 17.243h-15.209c-4.143 0-7.5 3.357-7.5 7.5s3.357 7.5 7.5 7.5h18.315c1.989 0 3.896-.79 5.303-2.196l19.44-19.439c2.93-2.929 2.93-7.678.001-10.606s-7.677-2.931-10.606-.002z"/><path d="m189.496 94.822c-9.432 3.682-17.186 3.112-23.703-1.741-5.106-3.803-7.579-8.954-7.667-9.14-1.703-3.751-6.119-5.43-9.888-3.745-3.781 1.689-5.478 6.125-3.788 9.907.12.27 10.22 22.147 33.586 22.147 5.016 0 10.644-1.008 16.913-3.454 3.858-1.506 5.766-5.854 4.261-9.714-1.505-3.857-5.855-5.763-9.714-4.26z"/><path d="m144.45 421.896c-1.689 3.782-.004 8.241 3.777 9.931 1 .447 2.044.658 3.071.658 2.858 0 5.582-1.641 6.825-4.422.024-.053 2.495-5.291 7.669-9.145 6.515-4.853 14.271-5.424 23.703-1.741 3.859 1.507 8.209-.403 9.714-4.261 1.505-3.859-.402-8.208-4.261-9.714-35.476-13.837-50.351 18.367-50.498 18.694z"/><path d="m111.744 243.758c-2.407-9.818-6.809-16.234-7.188-16.772-2.376-3.374-7.017-4.176-10.402-1.818-3.386 2.356-4.221 7.022-1.884 10.422.549.799 13.287 19.805-.183 41.096-2.215 3.5-1.172 8.134 2.328 10.348 1.244.787 2.632 1.163 4.003 1.163 2.485 0 4.918-1.235 6.345-3.491 5.552-8.775 7.881-17.266 8.403-24.922 4.957-3.182 17.199-8.553 32.728 2.354 1.312.921 2.814 1.363 4.304 1.363 2.36-.001 4.685-1.112 6.145-3.19 2.381-3.39 1.563-8.067-1.827-10.448-16.482-11.576-32.039-10.408-42.772-6.105z"/><path d="m232.641 166.824c-6.678-7.306-13.658-8.899-18.338-8.948-.081-.001-.162-.002-.243-.002-10.994 0-18.871 7.924-19.738 8.833-2.859 2.998-2.769 7.767.229 10.626 1.458 1.391 3.324 2.083 5.187 2.083 1.966 0 3.928-.772 5.396-2.313 1.172-1.187 5.033-4.229 8.933-4.229.047 0 .095.001.143.002 2.494.048 4.902 1.378 7.36 4.067 2.795 3.059 7.539 3.271 10.596.477 3.056-2.795 3.269-7.538.475-10.596z"/><path d="m214.303 354.125c4.68-.05 11.66-1.643 18.338-8.948 2.794-3.057 2.581-7.801-.477-10.596-3.056-2.794-7.801-2.581-10.596.476-2.458 2.69-4.866 4.021-7.36 4.068-3.967.109-7.877-3.017-9.069-4.223-2.863-2.96-7.583-3.061-10.567-.212-2.997 2.858-3.109 7.606-.25 10.604.867.909 8.743 8.832 19.738 8.832.08 0 .162 0 .243-.001z"/><path d="m106.631 142.339-6.846-5.22c-3.295-2.513-8.002-1.877-10.512 1.416-2.512 3.294-1.878 8 1.416 10.512l6.846 5.22c1.358 1.036 2.957 1.536 4.542 1.536 2.26 0 4.494-1.017 5.97-2.952 2.512-3.294 1.878-8-1.416-10.512z"/><path d="m100.958 357.733-6.846 5.22c-3.294 2.512-3.928 7.218-1.416 10.512 1.476 1.936 3.71 2.952 5.97 2.952 1.585 0 3.184-.5 4.542-1.536l6.846-5.22c3.294-2.512 3.928-7.218 1.416-10.512-2.511-3.293-7.217-3.929-10.512-1.416z"/><path d="m331.551 41.787-14.89 11.97c-3.229 2.596-3.741 7.316-1.146 10.545 1.482 1.843 3.656 2.801 5.851 2.801 1.648 0 3.309-.541 4.694-1.654l14.89-11.97c3.229-2.596 3.741-7.316 1.146-10.545-2.597-3.228-7.315-3.743-10.545-1.147z"/><path d="m326.06 446.553c-3.229-2.595-7.95-2.081-10.545 1.146-2.595 3.229-2.082 7.949 1.146 10.545l14.89 11.969c1.386 1.113 3.046 1.654 4.694 1.654 2.194 0 4.369-.958 5.851-2.801 2.595-3.229 2.082-7.949-1.146-10.545z"/></g></svg>