<?xml version="1.0" encoding="iso-8859-1"?>
<!-- Generator: Adobe Illustrator 19.0.0, SVG Export Plug-In . SVG Version: 6.00 Build 0)  -->
<svg version="1.1" id="Capa_1" xmlns="http://www.w3.org/2000/svg" xmlns:xlink="http://www.w3.org/1999/xlink" x="0px" y="0px"
	 viewBox="0 0 512 512" style="enable-background:new 0 0 512 512;" xml:space="preserve">
<g>
	<g>
		<path d="M353.059,25.757h-39.16c-4.143,0-7.5,3.358-7.5,7.5c0,4.143,3.357,7.5,7.5,7.5h39.16c4.143,0,7.5-3.357,7.5-7.5
			C360.56,29.115,357.203,25.757,353.059,25.757z"/>
	</g>
</g>
<g>
	<g>
		<path d="M297.662,31.793c-0.101-0.479-0.24-0.949-0.431-1.409c-0.189-0.45-0.42-0.891-0.689-1.29
			c-0.271-0.41-0.59-0.801-0.931-1.141c-0.35-0.35-0.729-0.66-1.14-0.93c-0.41-0.271-0.85-0.51-1.3-0.69
			c-0.45-0.189-0.92-0.33-1.4-0.43c-2.439-0.49-5.029,0.311-6.77,2.05c-0.351,0.34-0.66,0.731-0.931,1.141
			c-0.27,0.399-0.51,0.84-0.689,1.29c-0.19,0.46-0.33,0.93-0.43,1.409c-0.101,0.48-0.15,0.971-0.15,1.46c0,1.98,0.8,3.91,2.2,5.311
			c4.73,4.695,12.802,1.381,12.802-5.311C297.802,32.764,297.752,32.274,297.662,31.793z"/>
	</g>
</g>
<g>
	<g>
		<path d="M113.921,56.465c-0.09-0.471-0.24-0.95-0.42-1.4c-0.416-0.987-0.993-1.811-1.63-2.43
			c-6.362-6.563-16.484,2.13-11.541,9.461c1.224,1.79,2.969,2.846,4.77,3.189c0.49,0.101,0.98,0.15,1.47,0.15
			c0.49,0,0.981-0.05,1.46-0.15c0.48-0.09,0.96-0.24,1.41-0.42c0.45-0.189,0.89-0.42,1.29-0.689c0.41-0.28,0.8-0.591,1.14-0.94
			c0.35-0.34,0.66-0.73,0.94-1.14c0.27-0.4,0.5-0.841,0.69-1.29c0.18-0.45,0.33-0.931,0.42-1.4c0.1-0.49,0.15-0.979,0.15-1.47
			S114.021,56.955,113.921,56.465z"/>
	</g>
</g>
<g>
	<g>
		<path d="M111.871,79.138c-0.34-0.352-0.73-0.661-1.14-0.942c-0.4-0.27-0.84-0.5-1.29-0.69c-0.46-0.18-0.93-0.329-1.41-0.42
			c-2.43-0.5-5.02,0.301-6.76,2.051c-1.4,1.39-2.2,3.33-2.2,5.3c0,1.97,0.8,3.91,2.2,5.3c1.39,1.4,3.32,2.2,5.3,2.2
			c0.49,0,0.981-0.05,1.46-0.15c0.48-0.09,0.95-0.24,1.41-0.42c0.45-0.189,0.89-0.42,1.29-0.689c0.41-0.28,0.8-0.591,1.14-0.94
			c1.4-1.39,2.2-3.33,2.2-5.3S113.271,80.528,111.871,79.138z"/>
	</g>
</g>
<g>
	<g>
		<path d="M113.921,109.468c-0.09-0.47-0.24-0.949-0.43-1.399c-0.18-0.45-0.42-0.89-0.69-1.29c-0.27-0.41-0.58-0.8-0.93-1.14
			c-1.74-1.75-4.33-2.551-6.77-2.051c-0.47,0.091-0.95,0.24-1.4,0.42c-0.45,0.19-0.89,0.421-1.29,0.69
			c-0.42,0.28-0.8,0.59-1.14,0.94c-0.35,0.34-0.66,0.729-0.94,1.14c-0.27,0.4-0.5,0.84-0.69,1.29c-0.18,0.45-0.33,0.93-0.42,1.4
			c-0.1,0.489-0.15,0.979-0.15,1.47c0,1.97,0.8,3.91,2.2,5.3c1.39,1.4,3.32,2.2,5.3,2.2c1.97,0,3.91-0.8,5.3-2.2
			c1.4-1.39,2.2-3.32,2.2-5.3C114.071,110.448,114.021,109.958,113.921,109.468z"/>
	</g>
</g>
<g>
	<g>
		<path d="M106.569,25.934c-17.094,0-31.002,13.907-31.002,31.002v55.003c0,17.095,13.908,31.002,31.002,31.002
			s31.002-13.907,31.002-31.002V56.935C137.571,39.84,123.665,25.934,106.569,25.934z M122.57,111.939
			c0,8.823-7.178,16.001-16.001,16.001s-16.001-7.178-16.001-16.001V56.935c0-8.823,7.178-16.001,16.001-16.001
			s16.001,7.178,16.001,16.001V111.939z"/>
	</g>
</g>
<g>
	<g>
		<path d="M456.625,410.384c4.143,0,7.5-3.357,7.5-7.5V53.987C464.125,24.219,439.906,0,410.137,0H235.612H101.863
			C72.094,0,47.875,24.219,47.875,53.987v404.024c0,29.769,24.219,53.987,53.988,53.987h10.707c4.142,0,7.5-3.357,7.5-7.5
			c0-4.143-3.358-7.5-7.5-7.5h-10.707c-21.497,0-38.987-17.489-38.987-38.986V53.987c0-21.497,17.49-38.986,38.987-38.986h96.44
			c-3.442,3.295-6.715,7.363-9.345,11.872c-10.43,17.88-7.307,13.104-7.333,431.14c0,15.25,6.403,29.15,16.678,38.986h-50.731
			c-4.142,0-7.5,3.357-7.5,7.5s3.358,7.5,7.5,7.5c7.735,0,245.085,0,262.565,0c29.769,0,53.987-24.219,53.987-53.987v-20.126
			c0-4.143-3.357-7.5-7.5-7.5c-4.143,0-7.5,3.357-7.5,7.5v20.126c0,21.497-17.489,38.986-38.986,38.986H235.612
			c-21.497,0-38.986-17.489-38.986-38.986V53.988c0-21.497,17.489-38.986,38.986-38.986h174.525
			c21.497,0,38.986,17.489,38.986,38.986v348.896C449.124,407.027,452.481,410.384,456.625,410.384z"/>
	</g>
</g>
<g>
	<g>
		<path d="M410.137,25.758h-29.509c-4.143,0-7.5,3.358-7.5,7.5v12.678c0,2.44-2.061,4.5-4.5,4.5h-91.506c-2.439,0-4.5-2.06-4.5-4.5
			V33.257c0-4.142-3.357-7.5-7.5-7.5h-29.509c-15.567,0-28.232,12.665-28.232,28.231v46.45c0,4.143,3.358,7.5,7.5,7.5
			c4.142,0,7.5-3.357,7.5-7.5v-46.45c0-7.295,5.935-13.23,13.231-13.23h22.008v5.177c0,10.753,8.749,19.501,19.501,19.501h91.506
			c10.753,0,19.501-8.749,19.501-19.501v-5.177h22.008c7.295,0,13.23,5.935,13.23,13.23v404.024c0,7.295-5.934,13.23-13.23,13.23
			H235.612c-7.295,0-13.231-5.935-13.231-13.23V135.44c0-4.143-3.358-7.5-7.5-7.5c-4.142,0-7.5,3.357-7.5,7.5v322.573
			c0,15.566,12.665,28.231,28.232,28.231h174.525c15.566,0,28.231-12.665,28.231-28.231V53.988
			C438.368,38.422,425.703,25.758,410.137,25.758z"/>
	</g>
</g>
<g>
	<g>
		<path d="M262.036,421.766h-20.071c-5.98,0-10.846,4.865-10.846,10.846v20.07h0c0,5.979,4.865,10.846,10.846,10.846h20.071
			c5.979,0,10.846-4.865,10.846-10.846v-20.07C272.882,426.632,268.016,421.766,262.036,421.766z M257.88,448.526h-11.76v-11.76
			h11.76V448.526z"/>
	</g>
</g>
<g>
	<g>
		<path d="M309.285,421.766h-20.069c-5.979,0-10.846,4.865-10.846,10.846v20.07c0,5.979,4.865,10.846,10.846,10.846h20.069
			c5.98,0,10.847-4.865,10.847-10.846v-20.07C320.131,426.632,315.266,421.766,309.285,421.766z M305.131,448.526h-11.76v-11.76
			h11.76V448.526z"/>
	</g>
</g>
<g>
	<g>
		<path d="M356.535,421.766h-20.069c-5.981,0-10.847,4.865-10.847,10.846v20.07c0,5.979,4.865,10.846,10.847,10.846h20.069
			c5.98,0,10.847-4.865,10.847-10.846v-20.07C367.381,426.632,362.516,421.766,356.535,421.766z M352.38,448.526H340.62v-11.76
			h11.761V448.526z"/>
	</g>
</g>
<g>
	<g>
		<path d="M403.785,421.766h-20.069c-5.98,0-10.847,4.865-10.847,10.846v20.07c0,5.979,4.865,10.846,10.847,10.846h20.069
			c5.98,0,10.847-4.865,10.847-10.846v-20.07C414.631,426.632,409.766,421.766,403.785,421.766z M399.63,448.526H387.87v-11.76
			h11.761V448.526z"/>
	</g>
</g>
<g>
	<g>
		<path d="M262.036,84.056h-20.071c-5.98,0-10.846,4.865-10.846,10.846v20.07c0,5.981,4.865,10.848,10.846,10.848h20.071
			c5.979,0,10.846-4.865,10.846-10.847V94.902C272.882,88.922,268.016,84.056,262.036,84.056z M257.88,110.819h-11.76V99.058h11.76
			V110.819z"/>
	</g>
</g>
<g>
	<g>
		<path d="M309.284,84.056h-20.069c-5.979,0-10.846,4.865-10.846,10.846v20.07c0.001,5.981,4.866,10.848,10.846,10.848h20.069
			c5.98,0,10.847-4.865,10.847-10.847V94.902C320.13,88.922,315.265,84.056,309.284,84.056z M305.131,110.819h-11.76V99.058h11.76
			V110.819z"/>
	</g>
</g>
<g>
	<g>
		<path d="M356.534,84.056h-20.069c-5.981,0-10.847,4.865-10.847,10.846v20.07c0.001,5.981,4.866,10.848,10.847,10.848h20.069
			c5.98,0,10.847-4.865,10.847-10.847V94.902C367.38,88.922,362.515,84.056,356.534,84.056z M352.38,110.819H340.62V99.058h11.761
			V110.819z"/>
	</g>
</g>
<g>
	<g>
		<path d="M403.783,84.056h-20.069c-5.98,0-10.847,4.865-10.847,10.846v20.07c0.001,5.981,4.866,10.848,10.847,10.848h20.069
			c5.98,0,10.847-4.865,10.847-10.847V94.902C414.63,88.922,409.765,84.056,403.783,84.056z M399.63,110.819H387.87V99.058h11.761
			V110.819z"/>
	</g>
</g>
<g>
	<g>
		<path d="M262.036,131.773h-20.071c-5.98,0-10.846,4.865-10.846,10.846v20.07h0c0,5.98,4.865,10.846,10.846,10.846h20.071
			c5.979,0,10.846-4.865,10.846-10.846v-20.07C272.882,136.639,268.016,131.773,262.036,131.773z M257.88,158.534h-11.76v-11.76
			h11.76V158.534z"/>
	</g>
</g>
<g>
	<g>
		<path d="M309.285,131.773h-20.069c-5.979,0-10.846,4.865-10.846,10.846v20.07c0,5.98,4.865,10.846,10.846,10.846h20.069
			c5.98,0,10.847-4.865,10.847-10.846v-20.07C320.131,136.639,315.266,131.773,309.285,131.773z M305.131,158.534h-11.76v-11.76
			h11.76V158.534z"/>
	</g>
</g>
<g>
	<g>
		<path d="M356.535,131.773h-20.069c-5.981,0-10.847,4.865-10.847,10.846v20.07c0,5.98,4.865,10.846,10.847,10.846h20.069
			c5.98,0,10.847-4.865,10.847-10.846v-20.07C367.381,136.639,362.516,131.773,356.535,131.773z M352.38,158.534H340.62v-11.76
			h11.761V158.534z"/>
	</g>
</g>
<g>
	<g>
		<path d="M403.785,131.773h-20.069c-5.98,0-10.847,4.865-10.847,10.846v20.07c0,5.98,4.865,10.846,10.847,10.846h20.069
			c5.98,0,10.847-4.865,10.847-10.846v-20.07C414.631,136.639,409.766,131.773,403.785,131.773z M399.63,158.534H387.87v-11.76
			h11.761V158.534z"/>
	</g>
</g>
<g>
	<g>
		<path d="M262.036,180.11h-20.071c-5.98,0-10.846,4.865-10.846,10.846v20.07h0c0,5.979,4.865,10.846,10.846,10.846h20.071
			c5.979,0,10.846-4.865,10.846-10.846v-20.07C272.882,184.976,268.016,180.11,262.036,180.11z M257.88,206.871h-11.76v-11.76h11.76
			V206.871z"/>
	</g>
</g>
<g>
	<g>
		<path d="M309.285,180.11h-20.069c-5.979,0-10.846,4.865-10.846,10.846v20.07c0,5.979,4.865,10.846,10.846,10.846h20.069
			c5.98,0,10.847-4.865,10.847-10.846v-20.07C320.131,184.976,315.266,180.11,309.285,180.11z M305.131,206.871h-11.76v-11.76h11.76
			V206.871z"/>
	</g>
</g>
<g>
	<g>
		<path d="M356.535,180.11h-20.069c-5.981,0-10.847,4.865-10.847,10.846v20.07c0,5.979,4.865,10.846,10.847,10.846h20.069
			c5.98,0,10.847-4.865,10.847-10.846v-20.07C367.381,184.976,362.516,180.11,356.535,180.11z M352.38,206.871H340.62v-11.76h11.761
			V206.871z"/>
	</g>
</g>
<g>
	<g>
		<path d="M403.785,180.11h-20.069c-5.98,0-10.847,4.865-10.847,10.846v20.07c0,5.979,4.865,10.846,10.847,10.846h20.069
			c5.98,0,10.847-4.865,10.847-10.846v-20.07C414.631,184.976,409.766,180.11,403.785,180.11z M399.63,206.871H387.87v-11.76h11.761
			V206.871z"/>
	</g>
</g>
<g>
	<g>
		<path d="M262.036,227.825h-20.071c-5.98,0-10.846,4.865-10.846,10.846v20.07h0c0,5.979,4.865,10.846,10.846,10.846h20.071
			c5.979,0,10.846-4.865,10.846-10.846v-20.07C272.882,232.69,268.016,227.825,262.036,227.825z M257.88,254.585h-11.76v-11.76
			h11.76V254.585z"/>
	</g>
</g>
<g>
	<g>
		<path d="M309.285,227.825h-20.069c-5.979,0-10.846,4.865-10.846,10.846v20.07c0,5.979,4.865,10.846,10.846,10.846h20.069
			c5.98,0,10.847-4.865,10.847-10.846v-20.07C320.131,232.69,315.266,227.825,309.285,227.825z M305.131,254.585h-11.76v-11.76
			h11.76V254.585z"/>
	</g>
</g>
<g>
	<g>
		<path d="M356.535,227.825h-20.069c-5.981,0-10.847,4.865-10.847,10.846v20.07c0,5.979,4.865,10.846,10.847,10.846h20.069
			c5.98,0,10.847-4.865,10.847-10.846v-20.07C367.381,232.69,362.516,227.825,356.535,227.825z M352.38,254.585H340.62v-11.76
			h11.761V254.585z"/>
	</g>
</g>
<g>
	<g>
		<path d="M262.036,275.541h-20.071c-5.98,0-10.846,4.865-10.846,10.846v20.07h0c0,5.98,4.865,10.846,10.846,10.846h20.071
			c5.979,0,10.846-4.865,10.846-10.846v-20.07C272.882,280.406,268.016,275.541,262.036,275.541z M257.88,302.301h-11.76v-11.76
			h11.76V302.301z"/>
	</g>
</g>
<g>
	<g>
		<path d="M309.285,275.541h-20.069c-5.979,0-10.846,4.865-10.846,10.846v20.07c0,5.98,4.865,10.846,10.846,10.846h20.069
			c5.98,0,10.847-4.865,10.847-10.846v-20.07C320.131,280.406,315.266,275.541,309.285,275.541z M305.131,302.301h-11.76v-11.76
			h11.76V302.301z"/>
	</g>
</g>
<g>
	<g>
		<path d="M356.535,275.541h-20.069c-5.981,0-10.847,4.865-10.847,10.846v20.07c0,5.98,4.865,10.846,10.847,10.846h20.069
			c5.98,0,10.847-4.865,10.847-10.846v-20.07C367.381,280.406,362.516,275.541,356.535,275.541z M352.38,302.301H340.62v-11.76
			h11.761V302.301z"/>
	</g>
</g>
<g>
	<g>
		<path d="M403.785,227.825h-20.069c-5.98,0-10.847,4.865-10.847,10.846v20.07c0,5.979,4.865,10.846,10.847,10.846h20.069
			c5.98,0,10.847-4.865,10.847-10.846v-20.07C414.631,232.69,409.766,227.825,403.785,227.825z M399.63,254.585H387.87v-11.76
			h11.761V254.585z"/>
	</g>
</g>
<g>
</g>
<g>
</g>
<g>
</g>
<g>
</g>
<g>
</g>
<g>
</g>
<g>
</g>
<g>
</g>
<g>
</g>
<g>
</g>
<g>
</g>
<g>
</g>
<g>
</g>
<g>
</g>
<g>
</g>
</svg>
