<?xml version="1.0" encoding="UTF-8"?>
<svg width="1350px" height="279px" viewBox="0 0 1350 279" version="1.1" xmlns="http://www.w3.org/2000/svg" xmlns:xlink="http://www.w3.org/1999/xlink">
    <title>brand-menu-banner</title>
    <g id="brand-menu-banner" stroke="none" stroke-width="1" fill="none" fill-rule="evenodd">
        <g id="Group" transform="translate(38.000000, 19.000000)" stroke="#3298DC" stroke-width="3">
            <g>
                <g id="Right-Branch" transform="translate(72.000000, 37.000000)">
                    <polyline id="Line" stroke-linecap="square" points="1.00793939e-14 185 1.00793939e-14 78 16.5 58.5628282"></polyline>
                    <polyline id="Line" stroke-linecap="square" points="6.69228128e-14 142.437172 6.69228128e-14 35.4371718 16.5 16"></polyline>
                    <circle id="Oval" cx="23.5" cy="51.5" r="9.5"></circle>
                    <circle id="Oval" cx="23.5" cy="9.5" r="9.5"></circle>
                </g>
                <g id="Left-Branch" transform="translate(16.500000, 129.500000) scale(-1, 1) translate(-16.500000, -129.500000) translate(0.000000, 37.000000)">
                    <polyline id="Line" stroke-linecap="square" points="1.00793939e-14 185 1.00793939e-14 78 16.5 58.5628282"></polyline>
                    <polyline id="Line" stroke-linecap="square" points="6.69228128e-14 142.437172 6.69228128e-14 35.4371718 16.5 16"></polyline>
                    <circle id="Oval" cx="23.5" cy="51.5" r="9.5"></circle>
                    <circle id="Oval" cx="23.5" cy="9.5" r="9.5"></circle>
                </g>
                <path d="M1.56663806,202.468267 C1.67509701,192.421861 1.2547701,182.347536 1.89201491,172.329048 C2.43563767,163.782446 13.2579452,167.908401 14.3363888,160.011968 C15.8898581,148.637368 15.1318322,136.982834 15.5295539,125.468267" id="Path" transform="translate(8.529554, 163.968267) scale(-1, 1) translate(-8.529554, -163.968267) "></path>
                <path d="M88.5666381,202.468267 C88.675097,192.421861 88.2547701,182.347536 88.8920149,172.329048 C89.4356377,163.782446 100.257945,167.908401 101.336389,160.011968 C102.889858,148.637368 102.131832,136.982834 102.529554,125.468267" id="Path"></path>
                <g id="Trunk" transform="translate(43.000000, 0.000000)">
                    <line x1="9.5" y1="19" x2="9.5" y2="241.5" id="Line" stroke-linecap="square"></line>
                    <circle id="Oval" cx="9.5" cy="9.5" r="9.5"></circle>
                </g>
            </g>
        </g>
        <g id="Group" transform="translate(299.517134, 68.398779)" fill="#000000" fill-rule="nonzero">
            <g id="Name">
                <path d="M158.243643,143 L92.6929749,24.5649331 L79.1175334,0.0472267907 L79.1111009,0.0622383271 L65.5528141,24.5649363 L79.1175334,49.07621 L131.097046,143 L158.243643,143 Z M27.1401641,142.999997 L72.3180175,61.3607935 L58.8197703,36.7337268 L0,142.999997 L27.1401641,142.999997 Z M254.322462,142.99999 C256.129735,142.99999 257.907562,142.878772 259.653203,142.651407 C261.39816,142.878772 263.17667,142.99999 264.98326,142.99999 C280.357763,142.99999 293.753099,134.514909 300.724701,121.968766 C303.998204,116.092898 305.86095,109.3199 305.86095,102.122304 C305.86095,94.8904668 303.984508,88.0969254 300.683612,82.2005097 C298.430501,78.1736978 295.519961,74.5646274 292.088948,71.52397 C290.158402,69.8132569 288.059388,68.2895042 285.828202,66.9650371 C287.305385,65.1796753 288.637388,63.2710475 289.797493,61.2514723 C289.85913,61.1418992 289.920766,61.0391742 289.975551,60.9296012 C293.303839,55.0126412 295.200825,48.191704 295.200825,40.9187749 C295.200825,33.7348779 293.344927,26.9824252 290.091972,21.1202533 C289.996095,20.9421958 289.900222,20.7641383 289.797497,20.592929 C282.743717,8.32071988 269.499046,0.0479367958 254.323145,0.0479367958 L178.785373,0.0479367958 L178.785373,21.1202501 L258.732788,21.1202501 C267.806826,23.1336577 274.607219,31.2489309 274.607219,40.9187717 C274.607219,50.9652718 267.272657,59.3270837 257.678145,60.9295946 L199.330368,60.9295946 L199.330368,31.6598275 L178.785373,31.6598275 L178.785373,142.99999 L254.322462,142.99999 Z M269.215535,121.968766 L199.330371,121.968766 L199.330371,82.2005097 L268.797784,82.2005097 C278.166301,83.987923 285.268021,92.2401618 285.268021,102.122304 C285.268021,111.860629 278.378602,120.016991 269.215535,121.968766 Z M536.387568,143 L470.8369,24.5649331 L457.261458,0.0472267907 L457.255026,0.0622383271 L443.696739,24.5649363 L457.261458,49.07621 L509.240971,143 L536.387568,143 Z M405.284089,142.999997 L450.461942,61.3607935 L436.963695,36.7337268 L378.143925,142.999997 L405.284089,142.999997 Z M660.567044,142.349403 L660.567044,0.506776772 L640.022051,0.506780044 L640.022051,92.7469451 L547.494256,0.219149454 L547.494256,29.2766152 L568.039248,49.8216074 L568.039248,49.8147593 L640.022051,121.804411 L660.567044,142.349403 Z M568.039248,142.999997 L568.039248,64.353766 L547.494256,43.8087738 L547.494256,142.999997 L568.039248,142.999997 Z M701.627944,142.999997 L701.627944,0.267089521 L681.082952,0.267089521 L681.082952,142.999997 L701.627944,142.999997 Z M849.088949,143 L849.088949,0.986157818 L786.056911,64.0181953 L722.038716,0 L722.038716,29.0643172 L742.583708,49.6093093 L742.583708,49.6024612 L786.050063,93.0688162 L793.870857,85.261718 L800.58907,78.5503539 L828.543956,50.588619 L828.543956,143 L849.088949,143 Z M742.583708,142.999997 L742.583708,64.1277717 L722.038716,43.5827795 L722.038716,142.999997 L742.583708,142.999997 Z M1025.49803,143 L959.947358,24.5649331 L946.371917,0.0472267907 L946.365484,0.0622383271 L932.807197,24.5649363 L946.371917,49.07621 L998.351429,143 L1025.49803,143 Z M894.394547,142.999997 L939.572401,61.3607935 L926.074153,36.7337268 L867.254383,142.999997 L894.394547,142.999997 Z" id="ABANIMA"></path>
            </g>
        </g>
    </g>
</svg>