<?xml version="1.0" encoding="UTF-8"?>
<svg width="580px" height="300px" viewBox="0 0 580 300" version="1.1" xmlns="http://www.w3.org/2000/svg" xmlns:xlink="http://www.w3.org/1999/xlink">
    <title>brand-logo</title>
    <g id="brand-logo" stroke="none" stroke-width="1" fill="none" fill-rule="evenodd">
        <path d="M232.62578,175.000001 L208.169779,130.8136 L203.104979,121.6664 L203.102579,121.672001 L198.04418,130.813601 L203.104979,139.958401 L222.49778,175.000001 L232.62578,175.000001 Z M183.712979,175 L200.568179,144.5416 L195.532179,135.3536 L173.587378,175 L183.712979,175 Z M268.47139,174.999998 C269.145658,174.999998 269.808939,174.954773 270.460212,174.869946 C271.11123,174.954773 271.774767,174.999998 272.448779,174.999998 C278.184783,174.999998 283.182388,171.834337 285.783391,167.153553 C287.004687,164.961353 287.699651,162.434446 287.699651,159.749127 C287.699651,157.051034 286.999578,154.516462 285.768062,152.316595 C284.927458,150.81425 283.841578,149.467759 282.561517,148.333334 C281.841259,147.695092 281.058147,147.126602 280.225724,146.632462 C280.77684,145.96637 281.27379,145.254288 281.706609,144.500814 C281.729604,144.459934 281.7526,144.421609 281.77304,144.380729 C283.014775,142.173197 283.722513,139.628405 283.722513,136.91498 C283.722513,134.234773 283.030105,131.715531 281.816475,129.52844 C281.780704,129.462009 281.744935,129.395579 281.70661,129.331703 C279.074948,124.75312 274.133553,121.666665 268.471646,121.666665 L240.289601,121.666665 L240.289601,129.528439 L270.116819,129.528439 C273.502211,130.279612 276.039338,133.307302 276.039338,136.914979 C276.039338,140.663182 273.30292,143.782853 269.723347,144.380726 L247.95464,144.380726 L247.95464,133.460602 L240.289601,133.460602 L240.289601,174.999998 L268.47139,174.999998 Z M274.02778,167.153553 L247.954641,167.153553 L247.954641,152.316595 L273.871923,152.316595 C277.36718,152.983453 280.016729,156.062244 280.016729,159.749127 C280.016729,163.382355 277.446387,166.425375 274.02778,167.153553 Z M373.70578,175.000001 L349.249779,130.8136 L344.184979,121.6664 L344.182579,121.672001 L339.12418,130.813601 L344.184979,139.958401 L363.57778,175.000001 L373.70578,175.000001 Z M324.792979,175 L341.648179,144.5416 L336.612179,135.3536 L314.667378,175 L324.792979,175 Z M420.035337,174.757273 L420.035337,121.837852 L412.370299,121.837853 L412.370299,156.251317 L377.849524,121.730542 L377.849524,132.57146 L385.514562,140.236498 L385.514562,140.233943 L412.370299,167.092235 L420.035337,174.757273 Z M385.514562,175 L385.514562,145.658235 L377.849524,137.993197 L377.849524,175 L385.514562,175 Z M435.354562,175 L435.354562,121.748428 L427.689524,121.748428 L427.689524,175 L435.354562,175 Z M490.370118,174.999999 L490.370118,122.016702 L466.853782,145.533038 L442.969524,121.648781 L442.969524,132.492255 L450.634562,140.157292 L450.634562,140.154738 L466.851227,156.371403 L469.769052,153.458688 L472.275519,150.954775 L482.705081,140.522659 L482.705081,174.999999 L490.370118,174.999999 Z M450.634562,175 L450.634562,145.57392 L442.969524,137.908882 L442.969524,175 L450.634562,175 Z M556.18578,175.000001 L531.729779,130.8136 L526.664979,121.6664 L526.662579,121.672001 L521.60418,130.813601 L526.664979,139.958401 L546.05778,175.000001 L556.18578,175.000001 Z M507.272979,175 L524.128179,144.5416 L519.092179,135.3536 L497.147378,175 L507.272979,175 Z" id="ABANIMA" fill="#000000" fill-rule="nonzero"></path>
        <text id="Careful-Software-Eng" font-family="Helvetica-Light, Helvetica" font-size="18" font-weight="300" fill="#000000">
            <tspan x="247" y="213">Careful Software Engineering</tspan>
        </text>
        <g id="Logo" transform="translate(23.000000, 30.000000)" stroke="#3298DC" stroke-width="3">
            <g id="Right-Branch" transform="translate(72.000000, 37.000000)">
                <polyline id="Line" stroke-linecap="square" points="1.00793939e-14 185 1.00793939e-14 78 16.5 58.5628282"></polyline>
                <polyline id="Line" stroke-linecap="square" points="6.69228128e-14 142.437172 6.69228128e-14 35.4371718 16.5 16"></polyline>
                <circle id="Oval" cx="23.5" cy="51.5" r="9.5"></circle>
                <circle id="Oval" cx="23.5" cy="9.5" r="9.5"></circle>
            </g>
            <g id="Left-Branch" transform="translate(16.500000, 129.500000) scale(-1, 1) translate(-16.500000, -129.500000) translate(0.000000, 37.000000)">
                <polyline id="Line" stroke-linecap="square" points="1.00793939e-14 185 1.00793939e-14 78 16.5 58.5628282"></polyline>
                <polyline id="Line" stroke-linecap="square" points="6.69228128e-14 142.437172 6.69228128e-14 35.4371718 16.5 16"></polyline>
                <circle id="Oval" cx="23.5" cy="51.5" r="9.5"></circle>
                <circle id="Oval" cx="23.5" cy="9.5" r="9.5"></circle>
            </g>
            <path d="M1.56663806,202.468267 C1.67509701,192.421861 1.2547701,182.347536 1.89201491,172.329048 C2.43563767,163.782446 13.2579452,167.908401 14.3363888,160.011968 C15.8898581,148.637368 15.1318322,136.982834 15.5295539,125.468267" id="Path" transform="translate(8.529554, 163.968267) scale(-1, 1) translate(-8.529554, -163.968267) "></path>
            <path d="M88.5666381,202.468267 C88.675097,192.421861 88.2547701,182.347536 88.8920149,172.329048 C89.4356377,163.782446 100.257945,167.908401 101.336389,160.011968 C102.889858,148.637368 102.131832,136.982834 102.529554,125.468267" id="Path"></path>
            <g id="Trunk" transform="translate(43.000000, 0.000000)">
                <line x1="9.5" y1="19" x2="9.5" y2="241.5" id="Line" stroke-linecap="square"></line>
                <circle id="Oval" cx="9.5" cy="9.5" r="9.5"></circle>
            </g>
        </g>
    </g>
</svg>