<?xml version="1.0" encoding="UTF-8"?>
<svg width="323px" height="356px" viewBox="0 0 323 356" version="1.1" xmlns="http://www.w3.org/2000/svg" xmlns:xlink="http://www.w3.org/1999/xlink">
    <title>brand-banner-compact</title>
    <g id="brand-banner-compact" stroke="none" stroke-width="1" fill="none" fill-rule="evenodd">
        <g id="Group" transform="translate(109.000000, 27.000000)" stroke="#3298DC" stroke-width="3">
            <g>
                <g id="Right-Branch" transform="translate(72.000000, 37.000000)">
                    <polyline id="Line" stroke-linecap="square" points="1.00793939e-14 185 1.00793939e-14 78 16.5 58.5628282"></polyline>
                    <polyline id="Line" stroke-linecap="square" points="6.69228128e-14 142.437172 6.69228128e-14 35.4371718 16.5 16"></polyline>
                    <circle id="Oval" cx="23.5" cy="51.5" r="9.5"></circle>
                    <circle id="Oval" cx="23.5" cy="9.5" r="9.5"></circle>
                </g>
                <g id="Left-Branch" transform="translate(16.500000, 129.500000) scale(-1, 1) translate(-16.500000, -129.500000) translate(0.000000, 37.000000)">
                    <polyline id="Line" stroke-linecap="square" points="1.00793939e-14 185 1.00793939e-14 78 16.5 58.5628282"></polyline>
                    <polyline id="Line" stroke-linecap="square" points="6.69228128e-14 142.437172 6.69228128e-14 35.4371718 16.5 16"></polyline>
                    <circle id="Oval" cx="23.5" cy="51.5" r="9.5"></circle>
                    <circle id="Oval" cx="23.5" cy="9.5" r="9.5"></circle>
                </g>
                <path d="M1.56663806,202.468267 C1.67509701,192.421861 1.2547701,182.347536 1.89201491,172.329048 C2.43563767,163.782446 13.2579452,167.908401 14.3363888,160.011968 C15.8898581,148.637368 15.1318322,136.982834 15.5295539,125.468267" id="Path" transform="translate(8.529554, 163.968267) scale(-1, 1) translate(-8.529554, -163.968267) "></path>
                <path d="M88.5666381,202.468267 C88.675097,192.421861 88.2547701,182.347536 88.8920149,172.329048 C89.4356377,163.782446 100.257945,167.908401 101.336389,160.011968 C102.889858,148.637368 102.131832,136.982834 102.529554,125.468267" id="Path"></path>
                <g id="Trunk" transform="translate(43.000000, 0.000000)">
                    <line x1="9.5" y1="19" x2="9.5" y2="241.5" id="Line" stroke-linecap="square"></line>
                    <circle id="Oval" cx="9.5" cy="9.5" r="9.5"></circle>
                </g>
            </g>
        </g>
        <g id="Group" transform="translate(47.200799, 294.000000)" fill="#000000" fill-rule="nonzero">
            <g id="Name">
                <path d="M35.4111648,32 L20.7424839,5.49704796 L17.7046229,0.0105682329 L17.7031834,0.0139274578 L14.6691612,5.49704869 L17.7046229,10.982089 L29.3364019,32 L35.4111648,32 Z M6.07332343,31.9999993 L16.1830529,13.7310867 L13.1624661,8.22013467 L0,31.9999993 L6.07332343,31.9999993 Z M56.9113201,31.9999978 C57.315745,31.9999978 57.7135803,31.9728721 58.1042132,31.9219932 C58.4946931,31.9728721 58.8926814,31.9999978 59.2969533,31.9999978 C62.7374015,31.9999978 65.7349591,30.1012384 67.2950379,27.2937098 C68.0275701,25.9788302 68.4444083,24.4631945 68.4444083,22.8525435 C68.4444083,21.2342303 68.0245052,19.7139973 67.2858433,18.3945197 C66.7816506,17.4934149 66.1303409,16.6857907 65.3625618,16.0053639 C64.9305514,15.622547 64.460842,15.2815674 63.9615556,14.9851831 C64.2921142,14.5856616 64.5901846,14.1585561 64.8497887,13.7066232 C64.8635815,13.6821033 64.8773742,13.6591159 64.8896338,13.6345961 C65.6344255,12.3105211 66.0589259,10.7841575 66.0589259,9.15664894 C66.0589259,7.54906359 65.6436201,6.03802521 64.9156861,4.72621054 C64.8942311,4.6863655 64.8727769,4.64652047 64.8497895,4.60820788 C63.2713213,1.86197927 60.3074789,0.0107271151 56.9114731,0.0107271151 L40.0079156,0.0107271151 L40.0079156,4.72620981 L57.8982462,4.72620981 C59.9288002,5.17676255 61.4505665,6.99276775 61.4505665,9.15664821 C61.4505665,11.4048161 59.8092659,13.2759907 57.6622423,13.6345946 L44.6053971,13.6345946 L44.6053971,7.08471664 L40.0079156,7.08471664 L40.0079156,31.9999978 L56.9113201,31.9999978 Z M60.2440358,27.2937098 L44.6053978,27.2937098 L44.6053978,18.3945197 L60.150553,18.3945197 C62.2470044,18.7945003 63.8362004,20.6411551 63.8362004,22.8525435 C63.8362004,25.0317492 62.2945124,26.856949 60.2440358,27.2937098 Z M120.030784,32 L105.362103,5.49704796 L102.324242,0.0105682329 L102.322803,0.0139274578 L99.2887808,5.49704869 L102.324242,10.982089 L113.956021,32 L120.030784,32 Z M90.692943,31.9999993 L100.802672,13.7310867 L97.7820857,8.22013467 L84.6196196,31.9999993 L90.692943,31.9999993 Z M147.819199,31.8544119 L147.819199,0.113404592 L143.221718,0.113405325 L143.221718,20.7545611 L122.516197,0.0490404372 L122.516197,6.5514104 L127.113678,11.1488912 L127.113678,11.1473587 L143.221718,27.2569311 L147.819199,31.8544119 Z M127.113678,31.9999993 L127.113678,14.4008427 L122.516197,9.80336197 L122.516197,31.9999993 L127.113678,31.9999993 Z M157.007652,31.9999993 L157.007652,0.0597682845 L152.410171,0.0597682845 L152.410171,31.9999993 L157.007652,31.9999993 Z M190.005919,32 L190.005919,0.220678673 L175.900847,14.32575 L161.575097,0 L161.575097,6.50390314 L166.172578,11.1013839 L166.172578,11.0998515 L175.899315,20.8265883 L177.649423,19.0795453 L179.152799,17.5777016 L185.408438,11.3205301 L185.408438,32 L190.005919,32 Z M166.172578,31.9999993 L166.172578,14.3502706 L161.575097,9.75278982 L161.575097,31.9999993 L166.172578,31.9999993 Z M229.482076,32 L214.813395,5.49704796 L211.775534,0.0105682329 L211.774094,0.0139274578 L208.740072,5.49704869 L211.775534,10.982089 L223.407313,32 L229.482076,32 Z M200.144234,31.9999993 L210.253964,13.7310867 L207.233377,8.22013467 L194.070911,31.9999993 L200.144234,31.9999993 Z" id="ABANIMA"></path>
            </g>
        </g>
    </g>
</svg>